# xmcd CD database file
#
# Track frame offsets:
#	150
#	16433
#	31654
#	45346
#	59832
#	74539
#	93157
#	173319
#	186344
#	201010
#	203743
#	215367
#	226582
#	241427
#	256168
#	269297
#	283608
#	296592
#	311058
#	323047
#
# Disc length: 4472 seconds
#
# Revision: 0
# Processed by: cddbd v1.5.2PL0 Copyright (c) Steve Scherf et al.
# Submitted via: CDex 1.51
#
DISCID=19117614
DTITLE=Gerry Mulligan - Nights at the Turntable
DYEAR=1952
DGENRE=Jazz
TTITLE0=Roundhouse
TTITLE1=Ide's side
TTITLE2=Bweebida bobbida
TTITLE3=Kaper
TTITLE4=Funhouse
TTITLE5=Mullenium
TTITLE6=Mulligan's too
TTITLE7=Bernie's tune
TTITLE8=Lullaby of the leaves
TTITLE9=Utter chaos
TTITLE10=Line for lyons
TTITLE11=Carioca
TTITLE12=My funny valentine
TTITLE13=Bark for barksdale - utter chaos
TTITLE14=Nights at the turntable
TTITLE15=Frenesi
TTITLE16=Aren't you glad you're you
TTITLE17=Walkin' shoes
TTITLE18=Soft shoe
TTITLE19=Freeway
EXTD=YEAR: 1952
EXTT0=
EXTT1=
EXTT2=
EXTT3=
EXTT4=
EXTT5=
EXTT6=
EXTT7=
EXTT8=
EXTT9=
EXTT10=
EXTT11=
EXTT12=
EXTT13=
EXTT14=
EXTT15=
EXTT16=
EXTT17=
EXTT18=
EXTT19=
PLAYORDER=
